<svg width="120" height="36" viewBox="0 0 120 36" fill="none" xmlns="http://www.w3.org/2000/svg">
<g id="appstore">
<g id="Group">
<path id="Vector" d="M119.333 31.3818C119.333 33.2292 117.806 34.7256 115.916 34.7256H4.08812C2.1995 34.7256 0.666504 33.2292 0.666504 31.3818V4.71543C0.666504 2.86888 2.1995 1.36719 4.08812 1.36719H115.915C117.806 1.36719 119.332 2.86888 119.332 4.71543L119.333 31.3818Z" fill="black"/>
<path id="path16" d="M115.556 1.41059C117.613 1.41059 119.288 3.04318 119.288 5.04951V31.0495C119.288 33.0558 117.613 34.6884 115.556 34.6884H4.44444C2.38667 34.6884 0.712222 33.0558 0.712222 31.0495V5.04951C0.712222 3.04318 2.38667 1.41059 4.44444 1.41059H115.556ZM115.556 0.71618H4.44444C2.00111 0.71618 0 2.66726 0 5.04951V31.0495C0 33.4317 2.00111 35.3828 4.44444 35.3828H115.556C117.999 35.3828 120 33.4317 120 31.0495V5.04951C120 2.66726 117.999 0.71618 115.556 0.71618Z" fill="#A6A6A6"/>
<g id="Group_2">
<g id="Group_3">
<g id="Vector_2">
<path d="M26.7805 17.8596C26.7547 15.0664 29.1262 13.7074 29.2347 13.6442C27.8916 11.7349 25.8098 11.474 25.0782 11.4532C23.3298 11.2738 21.6338 12.4733 20.7431 12.4733C19.8347 12.4733 18.4631 11.4706 16.9849 11.5C15.0827 11.5286 13.3031 12.6024 12.3271 14.2699C10.3129 17.6698 11.8151 22.6661 13.7449 25.4143C14.7102 26.7603 15.8382 28.2631 17.3147 28.2102C18.7591 28.1521 19.2987 27.3123 21.0418 27.3123C22.7689 27.3123 23.2756 28.2102 24.7814 28.1764C26.3316 28.1521 27.3076 26.8244 28.2391 25.4663C29.3547 23.9237 29.8027 22.4044 29.8205 22.3264C29.784 22.3143 26.8098 21.2075 26.7805 17.8596Z" fill="white"/>
<path d="M23.936 9.64536C24.7129 8.69809 25.2445 7.40936 25.0969 6.10156C23.9725 6.1501 22.5662 6.8599 21.7565 7.78636C21.04 8.60276 20.4 9.94089 20.5654 11.1993C21.8285 11.2912 23.1254 10.5779 23.936 9.64536Z" fill="white"/>
</g>
</g>
</g>
<g id="Group_4">
<path id="Vector_3" d="M47.6844 28.018H45.6658L44.56 24.6302H40.7164L39.6631 28.018H37.6978L41.5058 16.4844H43.8578L47.6844 28.018ZM44.2266 23.2088L43.2266 20.1972C43.1209 19.8895 42.9226 19.165 42.6302 18.0244H42.5946C42.4782 18.515 42.2906 19.2395 42.0329 20.1972L41.0506 23.2088H44.2266V23.2088Z" fill="white"/>
<path id="Vector_4" d="M57.4774 23.758C57.4774 25.1724 57.0854 26.2904 56.3014 27.1111C55.5992 27.8417 54.7272 28.2066 53.6863 28.2066C52.5627 28.2066 51.7556 27.8131 51.2641 27.0262H51.2285V31.4072H49.3334V22.4398C49.3334 21.5506 49.3094 20.638 49.2632 19.702H50.9299L51.0356 21.0202H51.0712C51.7032 20.027 52.6623 19.5312 53.9494 19.5312C54.9556 19.5312 55.7956 19.9186 56.4676 20.6943C57.1414 21.4708 57.4774 22.4918 57.4774 23.758ZM55.5467 23.8256C55.5467 23.0161 55.3601 22.3488 54.985 21.8236C54.5752 21.2758 54.025 21.002 53.3352 21.002C52.8676 21.002 52.4427 21.1545 52.0632 21.4552C51.6827 21.7586 51.4338 22.1546 51.3174 22.6452C51.2587 22.874 51.2294 23.0612 51.2294 23.2085V24.5952C51.2294 25.2001 51.4196 25.7106 51.8001 26.1274C52.1805 26.5443 52.6747 26.7523 53.2827 26.7523C53.9965 26.7523 54.5521 26.4836 54.9494 25.948C55.3476 25.4116 55.5467 24.7044 55.5467 23.8256Z" fill="white"/>
<path id="Vector_5" d="M67.288 23.758C67.288 25.1724 66.896 26.2904 66.1112 27.1111C65.4098 27.8417 64.5378 28.2066 63.4969 28.2066C62.3734 28.2066 61.5663 27.8131 61.0756 27.0262H61.04V31.4072H59.1449V22.4398C59.1449 21.5506 59.1209 20.638 59.0747 19.702H60.7414L60.8472 21.0202H60.8827C61.5138 20.027 62.4729 19.5312 63.7609 19.5312C64.7663 19.5312 65.6063 19.9186 66.28 20.6943C66.9512 21.4708 67.288 22.4918 67.288 23.758ZM65.3574 23.8256C65.3574 23.0161 65.1698 22.3488 64.7947 21.8236C64.3849 21.2758 63.8365 21.002 63.1458 21.002C62.6774 21.002 62.2534 21.1545 61.8729 21.4552C61.4925 21.7586 61.2445 22.1546 61.128 22.6452C61.0703 22.874 61.04 23.0612 61.04 23.2085V24.5952C61.04 25.2001 61.2303 25.7106 61.6089 26.1274C61.9894 26.5434 62.4836 26.7523 63.0934 26.7523C63.8072 26.7523 64.3627 26.4836 64.76 25.948C65.1583 25.4116 65.3574 24.7044 65.3574 23.8256Z" fill="white"/>
<path id="Vector_6" d="M78.2566 24.7846C78.2566 25.7657 77.9073 26.5639 77.206 27.1801C76.4353 27.8535 75.3624 28.1897 73.9838 28.1897C72.7109 28.1897 71.6904 27.9505 70.918 27.4713L71.3571 25.9312C72.1891 26.4217 73.102 26.6679 74.0966 26.6679C74.8104 26.6679 75.366 26.5101 75.7651 26.1964C76.1624 25.8827 76.3606 25.4615 76.3606 24.9363C76.3606 24.4683 76.1971 24.0739 75.8691 23.7541C75.5429 23.4343 74.998 23.1371 74.2371 22.8623C72.166 22.1092 71.1313 21.0059 71.1313 19.5551C71.1313 18.607 71.494 17.8296 72.2202 17.2247C72.9437 16.6189 73.9091 16.3164 75.1162 16.3164C76.1926 16.3164 77.0869 16.4993 77.8006 16.8641L77.3269 18.3704C76.6602 18.0168 75.9064 17.84 75.0629 17.84C74.3962 17.84 73.8753 18.0003 73.502 18.3193C73.1864 18.6044 73.0282 18.9519 73.0282 19.3636C73.0282 19.8195 73.2086 20.1965 73.5713 20.4929C73.8869 20.7667 74.4602 21.0631 75.2922 21.3829C76.31 21.7825 77.0575 22.2496 77.5384 22.7852C78.0175 23.3191 78.2566 23.9873 78.2566 24.7846Z" fill="white"/>
<path id="Vector_7" d="M84.5228 21.0878H82.4339V25.1256C82.4339 26.1526 82.8019 26.6656 83.5397 26.6656C83.8783 26.6656 84.1592 26.637 84.3815 26.5798L84.4339 27.983C84.0606 28.119 83.569 28.1875 82.9601 28.1875C82.2117 28.1875 81.6268 27.9648 81.2046 27.5202C80.7841 27.0747 80.5726 26.3276 80.5726 25.2781V21.086H79.3281V19.6994H80.5726V18.1766L82.4339 17.6289V19.6994H84.5228V21.0878Z" fill="white"/>
<path id="Vector_8" d="M93.9474 23.7909C93.9474 25.0692 93.5723 26.1188 92.8239 26.9395C92.039 27.7845 90.9972 28.2057 89.6986 28.2057C88.447 28.2057 87.4505 27.801 86.7074 26.9915C85.9643 26.182 85.5928 25.1602 85.5928 23.9287C85.5928 22.64 85.975 21.5844 86.7421 20.7636C87.5074 19.9421 88.5403 19.5312 89.839 19.5312C91.0905 19.5312 92.0977 19.936 92.8577 20.7463C93.5848 21.5324 93.9474 22.5472 93.9474 23.7909ZM91.9812 23.8507C91.9812 23.0837 91.8132 22.4259 91.4728 21.8773C91.0754 21.2134 90.5074 20.8824 89.7714 20.8824C89.0097 20.8824 88.431 21.2143 88.0337 21.8773C87.6932 22.4268 87.5252 23.095 87.5252 23.8854C87.5252 24.6524 87.6932 25.3102 88.0337 25.8579C88.4434 26.5218 89.0159 26.8528 89.7545 26.8528C90.4781 26.8528 91.0461 26.5148 91.4559 25.8406C91.8052 25.2816 91.9812 24.6168 91.9812 23.8507Z" fill="white"/>
<path id="Vector_9" d="M100.108 21.327C99.92 21.2932 99.72 21.2758 99.5102 21.2758C98.8435 21.2758 98.328 21.5211 97.9653 22.0125C97.6497 22.4458 97.4915 22.9936 97.4915 23.6548V28.0185H95.5973L95.6151 22.321C95.6151 21.3625 95.5911 20.4898 95.5439 19.7028H97.1946L97.264 21.294H97.3164C97.5164 20.7472 97.832 20.3069 98.264 19.9767C98.6862 19.6794 99.1422 19.5312 99.6337 19.5312C99.8089 19.5312 99.9671 19.5434 100.108 19.565V21.327Z" fill="white"/>
<path id="Vector_10" d="M108.583 23.4668C108.583 23.7978 108.561 24.0769 108.514 24.3048H102.828C102.85 25.1264 103.125 25.7548 103.653 26.1881C104.132 26.5755 104.752 26.7696 105.513 26.7696C106.354 26.7696 107.122 26.6388 107.813 26.3762L108.11 27.6588C107.303 28.002 106.35 28.1727 105.25 28.1727C103.928 28.1727 102.89 27.7931 102.134 27.0348C101.38 26.2765 101.002 25.2582 101.002 23.9807C101.002 22.7266 101.354 21.6823 102.057 20.8494C102.793 19.9602 103.787 19.5156 105.039 19.5156C106.268 19.5156 107.199 19.9602 107.831 20.8494C108.331 21.5558 108.583 22.4294 108.583 23.4668ZM106.776 22.9875C106.788 22.4398 106.665 21.9666 106.408 21.567C106.08 21.0531 105.576 20.7966 104.898 20.7966C104.278 20.7966 103.774 21.047 103.389 21.5497C103.074 21.9492 102.886 22.4285 102.828 22.9866H106.776V22.9875Z" fill="white"/>
</g>
<g id="Group_5">
<g id="Group_6">
<path id="Vector_11" d="M43.6001 9.3897C43.6001 10.4098 43.2864 11.1776 42.6597 11.6933C42.0792 12.1691 41.2544 12.4074 40.1859 12.4074C39.6561 12.4074 39.2028 12.3849 38.8232 12.3398V6.7663C39.3184 6.6883 39.8517 6.64844 40.4277 6.64844C41.4455 6.64844 42.2126 6.86424 42.7299 7.29584C43.3095 7.78377 43.6001 8.48144 43.6001 9.3897ZM42.6179 9.41484C42.6179 8.75357 42.4384 8.24657 42.0792 7.89297C41.7201 7.54024 41.1957 7.36344 40.505 7.36344C40.2117 7.36344 39.9619 7.3825 39.7548 7.42237V11.6595C39.8695 11.6768 40.0792 11.6846 40.3841 11.6846C41.097 11.6846 41.6472 11.4914 42.0348 11.1048C42.4224 10.7183 42.6179 10.155 42.6179 9.41484Z" fill="white"/>
<path id="Vector_12" d="M48.8081 10.2835C48.8081 10.9119 48.6241 11.4267 48.2561 11.8305C47.8703 12.2457 47.3592 12.4528 46.721 12.4528C46.1059 12.4528 45.6161 12.2543 45.2508 11.8557C44.8863 11.4579 44.7041 10.9561 44.7041 10.3511C44.7041 9.71847 44.8917 9.19934 45.2685 8.79634C45.6454 8.39334 46.1521 8.19141 46.7903 8.19141C47.4054 8.19141 47.8997 8.38987 48.2739 8.78767C48.6294 9.1742 48.8081 9.6734 48.8081 10.2835ZM47.8419 10.313C47.8419 9.936 47.7583 9.61274 47.5921 9.3432C47.3965 9.01734 47.1183 8.8544 46.7565 8.8544C46.3823 8.8544 46.0979 9.01734 45.9023 9.3432C45.7352 9.61274 45.6525 9.9412 45.6525 10.3295C45.6525 10.7065 45.7361 11.0297 45.9023 11.2993C46.1041 11.6251 46.385 11.7881 46.7477 11.7881C47.1032 11.7881 47.3823 11.6225 47.5832 11.2906C47.7557 11.0159 47.8419 10.69 47.8419 10.313Z" fill="white"/>
<path id="Vector_13" d="M55.7913 8.27344L54.4802 12.3589H53.6269L53.0838 10.5848C52.946 10.142 52.834 9.7017 52.7469 9.2649H52.73C52.6491 9.71384 52.5371 10.1532 52.3931 10.5848L51.8162 12.3589H50.9531L49.7202 8.27344H50.6775L51.1513 10.2156C51.266 10.675 51.3602 11.1126 51.4358 11.5269H51.4527C51.522 11.1854 51.6367 10.7504 51.7984 10.2243L52.3931 8.2743H53.1522L53.722 10.1827C53.8598 10.6481 53.9718 11.0962 54.058 11.5278H54.0838C54.1469 11.1074 54.242 10.6594 54.3682 10.1827L54.8767 8.2743H55.7913V8.27344Z" fill="white"/>
<path id="Vector_14" d="M60.6206 12.3588H59.6891V10.0188C59.6891 9.2977 59.4082 8.93717 58.8446 8.93717C58.5682 8.93717 58.3451 9.03597 58.1718 9.23443C58.0002 9.4329 57.9131 9.6669 57.9131 9.9347V12.3579H56.9815V9.4407C56.9815 9.0819 56.97 8.69277 56.9478 8.27157H57.7664L57.81 8.9103H57.8358C57.9442 8.71183 58.106 8.54803 58.3184 8.41717C58.5709 8.26463 58.8535 8.1875 59.1629 8.1875C59.554 8.1875 59.8793 8.31057 60.138 8.55757C60.4597 8.86003 60.6206 9.31157 60.6206 9.9113V12.3588V12.3588Z" fill="white"/>
<path id="Vector_15" d="M63.1899 12.3585H62.2593V6.39844H63.1899V12.3585Z" fill="white"/>
<path id="Vector_16" d="M68.6738 10.2835C68.6738 10.9119 68.4898 11.4267 68.1218 11.8305C67.736 12.2457 67.2241 12.4528 66.5867 12.4528C65.9707 12.4528 65.4809 12.2543 65.1165 11.8557C64.752 11.4579 64.5698 10.9561 64.5698 10.3511C64.5698 9.71847 64.7574 9.19934 65.1343 8.79634C65.5112 8.39334 66.0178 8.19141 66.6552 8.19141C67.2712 8.19141 67.7645 8.38987 68.1396 8.78767C68.4952 9.1742 68.6738 9.6734 68.6738 10.2835ZM67.7067 10.313C67.7067 9.936 67.6232 9.61274 67.4569 9.3432C67.2623 9.01734 66.9832 8.8544 66.6223 8.8544C66.2472 8.8544 65.9627 9.01734 65.768 9.3432C65.6009 9.61274 65.5183 9.9412 65.5183 10.3295C65.5183 10.7065 65.6018 11.0297 65.768 11.2993C65.9698 11.6251 66.2507 11.7881 66.6134 11.7881C66.9689 11.7881 67.2472 11.6225 67.448 11.2906C67.6214 11.0159 67.7067 10.69 67.7067 10.313Z" fill="white"/>
<path id="Vector_17" d="M73.1827 12.3601H72.3462L72.2769 11.8895H72.2511C71.9649 12.2647 71.5569 12.4528 71.0271 12.4528C70.6316 12.4528 70.3116 12.3289 70.0707 12.0827C69.852 11.8591 69.7427 11.5809 69.7427 11.2507C69.7427 10.7515 69.956 10.3711 70.3853 10.1076C70.8138 9.84414 71.4165 9.715 72.1925 9.72107V9.6448C72.1925 9.10661 71.9027 8.83794 71.3222 8.83794C70.9089 8.83794 70.5445 8.93934 70.2298 9.14041L70.0405 8.54414C70.4298 8.30927 70.9107 8.19141 71.4778 8.19141C72.5729 8.19141 73.1222 8.75474 73.1222 9.8814V11.3859C73.1222 11.7941 73.1427 12.1191 73.1827 12.3601ZM72.2156 10.9561V10.326C71.188 10.3087 70.6742 10.5834 70.6742 11.1493C70.6742 11.3625 70.7329 11.522 70.8529 11.6286C70.9729 11.7352 71.1258 11.7881 71.308 11.7881C71.5125 11.7881 71.7036 11.7248 71.8778 11.5991C72.0529 11.4726 72.1604 11.3123 72.2004 11.1155C72.2102 11.0713 72.2156 11.0176 72.2156 10.9561Z" fill="white"/>
<path id="Vector_18" d="M78.4756 12.3585H77.6489L77.6054 11.7024H77.5796C77.3156 12.2016 76.8658 12.4512 76.2338 12.4512C75.7289 12.4512 75.3085 12.258 74.9751 11.8714C74.6418 11.4849 74.4756 10.9831 74.4756 10.3669C74.4756 9.70563 74.656 9.17003 75.0187 8.76097C75.3698 8.37964 75.8 8.18897 76.312 8.18897C76.8747 8.18897 77.2685 8.37357 77.4925 8.74364H77.5102V6.39844H78.4427V11.2578C78.4427 11.6556 78.4534 12.0222 78.4756 12.3585ZM77.5102 10.6356V9.95437C77.5102 9.8365 77.5014 9.74117 77.4845 9.66837C77.432 9.44997 77.3191 9.26623 77.1476 9.11803C76.9742 8.96984 76.7654 8.8953 76.5245 8.8953C76.1769 8.8953 75.9049 9.02963 75.7049 9.29917C75.5067 9.5687 75.4062 9.91277 75.4062 10.3331C75.4062 10.737 75.5014 11.0646 75.6925 11.3168C75.8942 11.5854 76.1662 11.7198 76.5067 11.7198C76.8125 11.7198 77.0569 11.608 77.2427 11.3835C77.4222 11.1764 77.5102 10.9268 77.5102 10.6356Z" fill="white"/>
<path id="Vector_19" d="M86.4429 10.2835C86.4429 10.9119 86.2589 11.4267 85.8909 11.8305C85.5051 12.2457 84.9949 12.4528 84.3558 12.4528C83.7415 12.4528 83.2518 12.2543 82.8855 11.8557C82.5211 11.4579 82.3389 10.9561 82.3389 10.3511C82.3389 9.71847 82.5264 9.19934 82.9033 8.79634C83.2802 8.39334 83.7869 8.19141 84.426 8.19141C85.0402 8.19141 85.5353 8.38987 85.9086 8.78767C86.2642 9.1742 86.4429 9.6734 86.4429 10.2835ZM85.4775 10.313C85.4775 9.936 85.394 9.61274 85.2278 9.3432C85.0313 9.01734 84.754 8.8544 84.3913 8.8544C84.018 8.8544 83.7335 9.01734 83.5371 9.3432C83.37 9.61274 83.2873 9.9412 83.2873 10.3295C83.2873 10.7065 83.3709 11.0297 83.5371 11.2993C83.7389 11.6251 84.0198 11.7881 84.3824 11.7881C84.738 11.7881 85.018 11.6225 85.2189 11.2906C85.3904 11.0159 85.4775 10.69 85.4775 10.313Z" fill="white"/>
<path id="Vector_20" d="M91.4518 12.3588H90.5211V10.0188C90.5211 9.2977 90.2402 8.93717 89.6758 8.93717C89.3993 8.93717 89.1762 9.03597 89.0038 9.23443C88.8313 9.4329 88.7451 9.6669 88.7451 9.9347V12.3579H87.8127V9.4407C87.8127 9.0819 87.802 8.69277 87.7798 8.27157H88.5976L88.6411 8.9103H88.6669C88.7762 8.71183 88.938 8.54803 89.1496 8.41717C89.4029 8.26463 89.6847 8.1875 89.9949 8.1875C90.3851 8.1875 90.7104 8.31057 90.9691 8.55757C91.2918 8.86003 91.4518 9.31157 91.4518 9.9113V12.3588V12.3588Z" fill="white"/>
<path id="Vector_21" d="M97.7209 8.9517H96.6952V10.9364C96.6952 11.4408 96.8774 11.693 97.2383 11.693C97.4054 11.693 97.5441 11.6791 97.6534 11.6505L97.6774 12.3395C97.4934 12.4071 97.2516 12.4409 96.9538 12.4409C96.5858 12.4409 96.2996 12.3317 96.0925 12.1133C95.8845 11.8949 95.7814 11.5274 95.7814 11.0118V8.9517H95.1689V8.27137H95.7814V7.52257L96.6943 7.25391V8.27051H97.72V8.9517H97.7209Z" fill="white"/>
<path id="Vector_22" d="M102.653 12.3585H101.72V10.0358C101.72 9.3035 101.439 8.9369 100.877 8.9369C100.445 8.9369 100.15 9.14923 99.9879 9.5739C99.9603 9.66317 99.9443 9.77237 99.9443 9.90063V12.3576H99.0137V6.39844H99.9443V8.86064H99.9621C100.255 8.41257 100.676 8.18897 101.221 8.18897C101.607 8.18897 101.926 8.31204 102.179 8.55904C102.495 8.8667 102.653 9.3243 102.653 9.92923V12.3585V12.3585Z" fill="white"/>
<path id="Vector_23" d="M107.739 10.1241C107.739 10.287 107.727 10.4239 107.705 10.5357H104.911C104.923 10.9396 105.057 11.2473 105.315 11.4605C105.552 11.6511 105.857 11.7465 106.23 11.7465C106.643 11.7465 107.02 11.6823 107.36 11.5532L107.506 12.1841C107.108 12.3523 106.641 12.4363 106.099 12.4363C105.451 12.4363 104.939 12.25 104.57 11.8773C104.198 11.5047 104.014 11.0046 104.014 10.3771C104.014 9.76093 104.186 9.24786 104.531 8.83879C104.892 8.40199 105.38 8.18359 105.996 8.18359C106.599 8.18359 107.057 8.40199 107.366 8.83879C107.616 9.18546 107.739 9.61446 107.739 10.1241ZM106.851 9.88919C106.858 9.61966 106.796 9.38739 106.67 9.19153C106.508 8.93933 106.262 8.81279 105.929 8.81279C105.625 8.81279 105.377 8.93586 105.187 9.18286C105.033 9.37959 104.941 9.61446 104.911 9.88919H106.851Z" fill="white"/>
</g>
</g>
</g>
</g>
</svg>
