<svg width="120" height="35" viewBox="0 0 120 35" fill="none" xmlns="http://www.w3.org/2000/svg">
<g id="googleplay">
<path id="path14" d="M115.556 34.7148H4.44444C2.00111 34.7148 0 32.7611 0 30.3755V4.33978C0 1.95426 2.00111 0.000487658 4.44444 0.000487658H115.556C117.999 0.000487658 120 1.95426 120 4.33978V30.3755C120 32.7611 117.999 34.7148 115.556 34.7148Z" fill="black"/>
<path id="path16" d="M115.556 0.695858C117.613 0.695858 119.288 2.33069 119.288 4.33978V30.3755C119.288 32.3846 117.613 34.0195 115.556 34.0195H4.44444C2.38667 34.0195 0.712222 32.3846 0.712222 30.3755V4.33978C0.712222 2.33069 2.38667 0.695858 4.44444 0.695858H115.556ZM115.556 0.000487658H4.44444C2.00111 0.000487658 0 1.95426 0 4.33978V30.3755C0 32.7611 2.00111 34.7148 4.44444 34.7148H115.556C117.999 34.7148 120 32.7611 120 30.3755V4.33978C120 1.95426 117.999 0.000487658 115.556 0.000487658Z" fill="#A6A6A6"/>
<g id="g18">
<path id="path20" d="M42.1494 8.88931C42.1494 9.61397 41.9272 10.1944 41.4894 10.6272C40.9861 11.1403 40.3305 11.3985 39.5272 11.3985C38.7594 11.3985 38.1039 11.136 37.5661 10.6185C37.0272 10.0935 36.7583 9.44908 36.7583 8.67777C36.7583 7.90646 37.0272 7.26207 37.5661 6.74136C38.1039 6.21956 38.7594 5.95703 39.5272 5.95703C39.9094 5.95703 40.2739 6.03405 40.6216 6.17725C40.9683 6.32153 41.2505 6.5168 41.455 6.75763L40.9905 7.21543C40.6339 6.80428 40.1483 6.60142 39.5272 6.60142C38.9672 6.60142 38.4816 6.79235 38.0694 7.17746C37.6616 7.56365 37.4572 8.06376 37.4572 8.67777C37.4572 9.29178 37.6616 9.79622 38.0694 10.1824C38.4816 10.5632 38.9672 10.7585 39.5272 10.7585C40.1216 10.7585 40.6216 10.5632 41.0161 10.1781C41.2761 9.92315 41.4239 9.57166 41.4627 9.12255H39.5272V8.49552H42.1094C42.1405 8.63112 42.1494 8.76238 42.1494 8.88931V8.88931Z" fill="white" stroke="white" stroke-width="0.0941407" stroke-miterlimit="10"/>
</g>
<g id="g22">
<path id="path24" d="M46.2455 6.71709H43.82V8.36602H46.0066V8.99304H43.82V10.642H46.2455V11.2809H43.1333V6.07812H46.2455V6.71709Z" fill="white" stroke="white" stroke-width="0.0941407" stroke-miterlimit="10"/>
</g>
<g id="g26">
<path id="path28" d="M49.1373 11.2809H48.4507V6.71709H46.9629V6.07812H50.6262V6.71709H49.1373V11.2809V11.2809Z" fill="white" stroke="white" stroke-width="0.0941407" stroke-miterlimit="10"/>
</g>
<g id="g30">
<path id="path32" d="M53.2773 11.2809V6.07812H53.9629V11.2809H53.2773Z" fill="white" stroke="white" stroke-width="0.0941407" stroke-miterlimit="10"/>
</g>
<g id="g34">
<path id="path36" d="M57.0016 11.2809H56.3205V6.71709H54.8271V6.07812H58.4949V6.71709H57.0016V11.2809Z" fill="white" stroke="white" stroke-width="0.0941407" stroke-miterlimit="10"/>
</g>
<g id="g38">
<path id="path40" d="M65.4301 10.6098C64.9045 11.136 64.2534 11.3985 63.4767 11.3985C62.6956 11.3985 62.0445 11.136 61.519 10.6098C60.9945 10.0848 60.7334 9.4404 60.7334 8.67777C60.7334 7.91514 60.9945 7.27075 61.519 6.7457C62.0445 6.21956 62.6956 5.95703 63.4767 5.95703C64.249 5.95703 64.9001 6.21956 65.4256 6.75004C65.9545 7.27943 66.2156 7.91948 66.2156 8.67777C66.2156 9.4404 65.9545 10.0848 65.4301 10.6098ZM62.0267 10.1737C62.4223 10.5632 62.9034 10.7585 63.4767 10.7585C64.0456 10.7585 64.5312 10.5632 64.9223 10.1737C65.3167 9.78429 65.5167 9.28418 65.5167 8.67777C65.5167 8.07135 65.3167 7.57125 64.9223 7.1818C64.5312 6.79235 64.0456 6.59708 63.4767 6.59708C62.9034 6.59708 62.4223 6.79235 62.0267 7.1818C61.6323 7.57125 61.4323 8.07135 61.4323 8.67777C61.4323 9.28418 61.6323 9.78429 62.0267 10.1737V10.1737Z" fill="white" stroke="white" stroke-width="0.0941407" stroke-miterlimit="10"/>
</g>
<g id="g42">
<path id="path44" d="M67.1792 11.2809V6.07812H68.0125L70.6036 10.1245H70.6336L70.6036 9.12431V6.07812H71.2892V11.2809H70.5736L67.8603 7.03494H67.8303L67.8603 8.03949V11.2809H67.1792V11.2809Z" fill="white" stroke="white" stroke-width="0.0941407" stroke-miterlimit="10"/>
</g>
<path id="path46" d="M60.5649 18.8779C58.4771 18.8779 56.7716 20.4292 56.7716 22.5695C56.7716 24.6925 58.4771 26.2601 60.5649 26.2601C62.6571 26.2601 64.3627 24.6925 64.3627 22.5695C64.3627 20.4292 62.6571 18.8779 60.5649 18.8779ZM60.5649 24.8064C59.4193 24.8064 58.4338 23.8832 58.4338 22.5695C58.4338 21.2384 59.4193 20.3315 60.5649 20.3315C61.7105 20.3315 62.7005 21.2384 62.7005 22.5695C62.7005 23.8832 61.7105 24.8064 60.5649 24.8064V24.8064ZM52.2882 18.8779C50.196 18.8779 48.4949 20.4292 48.4949 22.5695C48.4949 24.6925 50.196 26.2601 52.2882 26.2601C54.3793 26.2601 56.0816 24.6925 56.0816 22.5695C56.0816 20.4292 54.3793 18.8779 52.2882 18.8779ZM52.2882 24.8064C51.1416 24.8064 50.1527 23.8832 50.1527 22.5695C50.1527 21.2384 51.1416 20.3315 52.2882 20.3315C53.4338 20.3315 54.4194 21.2384 54.4194 22.5695C54.4194 23.8832 53.4338 24.8064 52.2882 24.8064ZM42.4394 20.0093V21.578H46.276C46.1638 22.4545 45.8638 23.0989 45.4038 23.548C44.8438 24.0904 43.9716 24.6925 42.4394 24.6925C40.0782 24.6925 38.2294 22.832 38.2294 20.5268C38.2294 18.2215 40.0782 16.3611 42.4394 16.3611C43.716 16.3611 44.6449 16.8482 45.3305 17.4795L46.4627 16.3741C45.5038 15.4802 44.2282 14.7935 42.4394 14.7935C39.2016 14.7935 36.4805 17.3656 36.4805 20.5268C36.4805 23.688 39.2016 26.2601 42.4394 26.2601C44.1894 26.2601 45.5038 25.7003 46.5371 24.6502C47.596 23.6164 47.926 22.1627 47.926 20.9889C47.926 20.6244 47.8949 20.2892 47.8394 20.0093H42.4394ZM82.7127 21.2254C82.4005 20.3999 81.4371 18.8779 79.4749 18.8779C77.5305 18.8779 75.9116 20.3738 75.9116 22.5695C75.9116 24.6372 77.5138 26.2601 79.6616 26.2601C81.3982 26.2601 82.4005 25.2262 82.8127 24.6242L81.5238 23.7856C81.0938 24.3996 80.5082 24.8064 79.6616 24.8064C78.8205 24.8064 78.2171 24.43 77.8305 23.688L82.8871 21.6452L82.7127 21.2254V21.2254ZM77.5571 22.4545C77.5138 21.0312 78.6893 20.3022 79.5316 20.3022C80.1916 20.3022 80.7516 20.6244 80.9382 21.0855L77.5571 22.4545V22.4545ZM73.4471 26.0355H75.1093V15.1873H73.4471V26.0355ZM70.7249 19.7002H70.6693C70.296 19.2684 69.5838 18.8779 68.6816 18.8779C66.7882 18.8779 65.0571 20.5008 65.0571 22.5814C65.0571 24.6502 66.7882 26.2601 68.6816 26.2601C69.5838 26.2601 70.296 25.8663 70.6693 25.4215H70.7249V25.9509C70.7249 27.3623 69.9527 28.1206 68.7071 28.1206C67.6916 28.1206 67.0616 27.4046 66.8016 26.8025L65.356 27.3916C65.7727 28.3701 66.876 29.5742 68.7071 29.5742C70.656 29.5742 72.3005 28.4547 72.3005 25.7307V19.1024H70.7249V19.7002V19.7002ZM68.8238 24.8064C67.6782 24.8064 66.7193 23.8702 66.7193 22.5814C66.7193 21.2807 67.6782 20.3315 68.8238 20.3315C69.9527 20.3315 70.8427 21.2807 70.8427 22.5814C70.8427 23.8702 69.9527 24.8064 68.8238 24.8064V24.8064ZM90.4949 15.1873H86.5193V26.0355H88.1771V21.9251H90.4949C92.336 21.9251 94.1416 20.6244 94.1416 18.5557C94.1416 16.488 92.3316 15.1873 90.4949 15.1873V15.1873ZM90.5382 20.4161H88.1771V16.6963H90.5382C91.776 16.6963 92.4827 17.6997 92.4827 18.5557C92.4827 19.3953 91.776 20.4161 90.5382 20.4161ZM100.786 18.8572C99.5882 18.8572 98.3427 19.3736 97.8304 20.5181L99.3016 21.1202C99.6182 20.5181 100.2 20.3228 100.816 20.3228C101.676 20.3228 102.548 20.8273 102.562 21.7179V21.8318C102.262 21.6626 101.619 21.412 100.829 21.412C99.2449 21.412 97.6304 22.2636 97.6304 23.8529C97.6304 25.3065 98.9282 26.2427 100.387 26.2427C101.503 26.2427 102.118 25.7513 102.505 25.1796H102.562V26.0182H104.163V21.8568C104.163 19.9334 102.692 18.8572 100.786 18.8572ZM100.586 24.8021C100.044 24.8021 99.2882 24.5396 99.2882 23.8832C99.2882 23.0436 100.23 22.7214 101.046 22.7214C101.776 22.7214 102.118 22.8787 102.562 23.0859C102.432 24.0904 101.546 24.8021 100.586 24.8021V24.8021ZM109.996 19.0948L108.09 23.7975H108.034L106.064 19.0948H104.276L107.236 25.6667L105.547 29.3236H107.279L111.84 19.0948H109.996V19.0948ZM95.0527 26.0355H96.7149V15.1873H95.0527V26.0355Z" fill="white"/>
<g id="g48">
<path id="path64" d="M9.27599 6.54224C9.01488 6.8091 8.86377 7.22459 8.86377 7.76266V26.9554C8.86377 27.4934 9.01488 27.9089 9.27599 28.1758L9.34044 28.2344L20.356 17.4838V17.2299L9.34044 6.47932L9.27599 6.54224Z" fill="url(#paint0_linear_466_13348)"/>
</g>
<g id="g66">
<path id="path78" d="M24.0232 21.0703L20.3555 17.485V17.2311L24.0277 13.6458L24.1099 13.6924L28.4588 16.1083C29.6999 16.7939 29.6999 17.9222 28.4588 18.6121L24.1099 21.0237L24.0232 21.0703V21.0703Z" fill="url(#paint1_linear_466_13348)"/>
</g>
<g id="g80">
<path id="path88" d="M24.1103 21.0223L20.3559 17.3566L9.27588 28.1756C9.6881 28.5987 10.3603 28.6496 11.1248 28.2266L24.1103 21.0223" fill="url(#paint2_linear_466_13348)"/>
</g>
<g id="g90">
<path id="path104" d="M24.1103 13.6938L11.1248 6.48944C10.3603 6.0707 9.6881 6.12169 9.27588 6.54477L20.3559 17.3594L24.1103 13.6938Z" fill="url(#paint3_linear_466_13348)"/>
</g>
</g>
<defs>
<linearGradient id="paint0_linear_466_13348" x1="19.3779" y1="27.1552" x2="4.81736" y2="12.2418" gradientUnits="userSpaceOnUse">
<stop stop-color="#00A0FF"/>
<stop offset="0.0066" stop-color="#00A1FF"/>
<stop offset="0.2601" stop-color="#00BEFF"/>
<stop offset="0.5122" stop-color="#00D2FF"/>
<stop offset="0.7604" stop-color="#00DFFF"/>
<stop offset="1" stop-color="#00E3FF"/>
</linearGradient>
<linearGradient id="paint1_linear_466_13348" x1="30.0749" y1="17.3568" x2="8.56658" y2="17.3568" gradientUnits="userSpaceOnUse">
<stop stop-color="#FFE000"/>
<stop offset="0.4087" stop-color="#FFBD00"/>
<stop offset="0.7754" stop-color="#FFA500"/>
<stop offset="1" stop-color="#FF9C00"/>
</linearGradient>
<linearGradient id="paint2_linear_466_13348" x1="22.0688" y1="15.3639" x2="2.32343" y2="-4.85986" gradientUnits="userSpaceOnUse">
<stop stop-color="#FF3A44"/>
<stop offset="1" stop-color="#C31162"/>
</linearGradient>
<linearGradient id="paint3_linear_466_13348" x1="6.48681" y1="34.5636" x2="15.304" y2="25.5329" gradientUnits="userSpaceOnUse">
<stop stop-color="#32A071"/>
<stop offset="0.0685" stop-color="#2DA771"/>
<stop offset="0.4762" stop-color="#15CF74"/>
<stop offset="0.8009" stop-color="#06E775"/>
<stop offset="1" stop-color="#00F076"/>
</linearGradient>
</defs>
</svg>
